<svg width="16.666687" height="15.000000" viewBox="0 0 16.6667 15" fill="none" xmlns="http://www.w3.org/2000/svg" xmlns:xlink="http://www.w3.org/1999/xlink">
    <desc>
        Created with Pixso.
    </desc>
    <defs/>
    <path id="Vector" d="M15.8 1.64C15.55 1.53 15.27 1.5 15 1.55C14.73 1.61 14.48 1.76 14.29 1.98L12.5 3.96L9.31 0.44C9.05 0.16 8.7 0 8.33 0C7.96 0 7.61 0.16 7.35 0.44L4.16 3.96L2.37 1.98C2.17 1.76 1.92 1.62 1.65 1.56C1.39 1.5 1.11 1.53 0.85 1.64C0.6 1.76 0.38 1.96 0.23 2.21C0.08 2.46 6.1e-5 2.76 0 3.06L0 11.17C0 12.18 0.36 13.15 1.01 13.87C1.66 14.59 2.55 14.99 3.47 15L13.19 15C14.11 14.99 14.99 14.59 15.64 13.87C16.29 13.15 16.66 12.18 16.66 11.17L16.66 3.06C16.66 2.76 16.58 2.46 16.43 2.21C16.28 1.96 16.06 1.76 15.8 1.64Z" fill="#EC8304" fill-opacity="1.000000" fill-rule="nonzero"/>
</svg>
