<svg width="55.000000" height="78.000000" viewBox="0 0 55 78" fill="none" xmlns="http://www.w3.org/2000/svg" xmlns:xlink="http://www.w3.org/1999/xlink">
    <desc>
        Created with Pixso.
    </desc>
    <defs/>
    <rect id="lets-icons:desktop-light" rx="0.000000" width="49.000000" height="49.000000" transform="translate(0.500000 0.500000)" fill="#FFFFFF" fill-opacity="0"/>
    <path id="Vector" d="M7.43 12.23C7.57 11.21 7.82 10.67 8.2 10.28C8.59 9.9 9.13 9.65 10.14 9.51C11.2 9.37 12.58 9.37 14.58 9.37L35.41 9.37C37.41 9.37 38.8 9.37 39.85 9.51C40.87 9.65 41.4 9.9 41.79 10.28C42.17 10.67 42.42 11.21 42.56 12.23C42.7 13.28 42.7 14.67 42.7 16.66L42.7 34.37L7.29 34.37L7.29 16.66C7.29 14.67 7.29 13.28 7.43 12.23ZM5.2 36.8C5.2 38.91 6.91 40.62 9.02 40.62L40.97 40.62C43.08 40.62 44.79 38.91 44.79 36.8C44.79 35.46 43.7 34.37 42.36 34.37L7.63 34.37C6.29 34.37 5.2 35.46 5.2 36.8Z" stroke="#030625" stroke-opacity="1.000000" stroke-width="1.000000"/>
    <path id="Desktop" d="M26.26 72.92Q26.48 73.11 26.86 73.11Q27.29 73.11 27.51 72.89Q27.74 72.67 27.74 72.21L27.74 69.94L27.77 69.94L30.21 72.49Q30.49 72.8 30.72 72.95Q30.95 73.11 31.34 73.11Q31.61 73.11 31.8 72.98Q31.84 72.96 31.87 72.93Q31.98 72.84 32.04 72.72Q32.09 72.61 32.1 72.49Q32.11 72.46 32.1 72.43Q32.1 72.19 31.87 71.95L29.54 69.43L31.64 67.21Q31.88 66.95 31.89 66.69L31.89 66.68Q31.89 66.55 31.84 66.44Q31.79 66.32 31.7 66.23Q31.69 66.22 31.67 66.21Q31.49 66.04 31.15 66.04Q30.78 66.04 30.57 66.19Q30.36 66.34 30.08 66.62L27.77 69.06L27.74 69.06L27.74 63.9Q27.74 63.49 27.54 63.27Q27.53 63.26 27.51 63.24Q27.49 63.22 27.47 63.21Q27.25 63.01 26.86 63.01Q26.47 63.01 26.25 63.21Q26.23 63.22 26.21 63.24Q26.21 63.25 26.2 63.25Q25.99 63.47 25.99 63.9L25.99 72.21Q25.99 72.63 26.2 72.87Q26.21 72.87 26.21 72.88Q26.24 72.9 26.26 72.92ZM1.35 72.78Q1.59 73 2.03 73L4.74 73Q5.99 73 6.94 72.67Q7.9 72.34 8.57 71.71Q8.69 71.59 8.81 71.46Q9.3 70.9 9.58 70.16Q9.92 69.24 9.92 68.05Q9.92 66 8.91 64.77Q8.76 64.57 8.57 64.4Q8.52 64.35 8.47 64.31Q7.13 63.12 4.74 63.12L2.03 63.12Q1.6 63.12 1.35 63.34Q1.34 63.35 1.32 63.37Q1.3 63.39 1.28 63.41Q1.07 63.65 1.07 64.08L1.07 72.04Q1.07 72.48 1.29 72.72Q1.3 72.74 1.32 72.75Q1.33 72.77 1.35 72.78ZM34.9 72.83Q35.51 73.14 36.42 73.14Q36.65 73.14 36.94 73.08Q37.23 73.04 37.42 72.98Q37.56 72.93 37.65 72.83Q37.71 72.76 37.74 72.68Q37.84 72.46 37.84 72.18Q37.84 71.82 37.72 71.7Q37.67 71.65 37.61 71.62Q37.54 71.59 37.45 71.59Q37.31 71.61 37.12 71.65Q36.94 71.69 36.7 71.69Q36.06 71.69 35.76 71.37Q35.76 71.36 35.75 71.36Q35.46 71.02 35.46 70.35L35.46 67.46L36.94 67.46Q37.27 67.46 37.45 67.3Q37.45 67.3 37.46 67.29Q37.49 67.26 37.52 67.22Q37.64 67.06 37.64 66.81Q37.64 66.52 37.5 66.36Q37.48 66.34 37.46 66.32Q37.28 66.15 36.94 66.15L35.46 66.15L35.46 64.87Q35.46 64.46 35.25 64.24Q35.24 64.23 35.23 64.22Q35.21 64.2 35.2 64.18Q34.98 63.99 34.59 63.99Q34.2 63.99 33.98 64.18Q33.96 64.2 33.94 64.22Q33.92 64.23 33.91 64.24Q33.71 64.46 33.71 64.87L33.71 66.15L32.98 66.15Q32.65 66.15 32.46 66.31L32.46 66.32Q32.44 66.34 32.42 66.36Q32.28 66.52 32.28 66.81Q32.28 67.06 32.4 67.22Q32.42 67.26 32.46 67.29Q32.47 67.3 32.48 67.31Q32.66 67.46 32.98 67.46L33.71 67.46L33.71 70.45Q33.71 71.33 34 71.93Q34.13 72.18 34.31 72.39Q34.56 72.65 34.9 72.83ZM4.63 71.51L2.87 71.51L2.87 64.61L4.63 64.61Q6.33 64.61 7.19 65.46Q7.19 65.46 7.19 65.47Q8.04 66.32 8.04 68.05Q8.04 68.92 7.83 69.57Q7.62 70.22 7.2 70.65Q6.77 71.08 6.13 71.3Q5.5 71.51 4.63 71.51ZM12.94 72.7Q13.78 73.14 14.95 73.14Q15.49 73.14 16.13 72.99Q16.77 72.84 17.26 72.53Q17.51 72.38 17.61 72.17Q17.71 71.98 17.69 71.79Q17.69 71.78 17.69 71.76Q17.67 71.62 17.61 71.51Q17.57 71.46 17.53 71.41Q17.5 71.39 17.47 71.36Q17.35 71.27 17.17 71.25Q16.95 71.23 16.65 71.4Q16.44 71.52 16.21 71.6Q16.01 71.67 15.79 71.72Q15.34 71.81 14.98 71.81Q14 71.81 13.47 71.32Q13.43 71.28 13.38 71.24Q12.96 70.79 12.87 69.97L17.1 69.97Q17.42 69.97 17.6 69.84Q17.66 69.79 17.7 69.73Q17.78 69.61 17.78 69.45Q17.78 68.65 17.56 68.02Q17.34 67.38 16.93 66.93Q16.77 66.77 16.59 66.63Q16.3 66.4 15.93 66.25Q15.35 66.01 14.62 66.01Q13.77 66.01 13.08 66.34Q12.97 66.4 12.85 66.46Q12.51 66.67 12.23 66.94Q11.88 67.27 11.64 67.72Q11.2 68.51 11.2 69.58Q11.2 70.67 11.65 71.47Q11.84 71.8 12.09 72.07Q12.45 72.45 12.94 72.7ZM12.87 68.96Q12.92 68.56 13.06 68.24Q13.23 67.85 13.53 67.6Q13.61 67.53 13.69 67.47Q13.71 67.46 13.72 67.46Q14.12 67.2 14.7 67.2Q15.23 67.2 15.58 67.43Q15.65 67.48 15.72 67.53Q15.98 67.75 16.13 68.09Q16.29 68.45 16.31 68.96L12.87 68.96ZM20.39 73.01Q21.06 73.14 21.67 73.14Q23 73.14 23.79 72.55Q24.16 72.29 24.36 71.93Q24.59 71.51 24.59 70.95Q24.59 70.39 24.33 70Q24.24 69.86 24.12 69.75Q23.65 69.3 22.75 69.13L21.34 68.87Q20.94 68.79 20.74 68.6Q20.67 68.53 20.63 68.44Q20.55 68.29 20.55 68.11Q20.55 67.93 20.62 67.78Q20.7 67.61 20.88 67.48Q21.2 67.24 21.89 67.24Q22.25 67.24 22.65 67.34Q23.05 67.44 23.49 67.66Q23.73 67.77 23.91 67.74Q24 67.72 24.08 67.68Q24.16 67.64 24.23 67.56Q24.3 67.48 24.34 67.39Q24.38 67.31 24.4 67.22Q24.42 67.13 24.41 67.04Q24.4 66.94 24.36 66.85Q24.35 66.83 24.34 66.81Q24.26 66.66 24.08 66.56Q23.57 66.28 23.03 66.14Q22.49 66.01 21.88 66.01Q21.02 66.01 20.36 66.28Q19.72 66.54 19.35 67.01Q19.34 67.02 19.33 67.03Q19.23 67.16 19.16 67.31Q18.97 67.7 18.97 68.19Q18.97 68.72 19.2 69.12Q19.29 69.27 19.42 69.41Q19.87 69.87 20.74 70.04L22.14 70.31Q22.58 70.39 22.79 70.57Q22.86 70.62 22.91 70.69Q23.01 70.85 23.01 71.06Q23.01 71.22 22.96 71.35Q22.88 71.54 22.68 71.67Q22.35 71.9 21.68 71.9Q21.2 71.9 20.72 71.8Q20.23 71.69 19.67 71.43Q19.44 71.31 19.25 71.36Q19.14 71.38 19.05 71.44Q18.99 71.48 18.94 71.54Q18.9 71.59 18.87 71.65Q18.82 71.75 18.8 71.87Q18.8 71.91 18.8 71.94Q18.8 72.09 18.87 72.25Q18.97 72.43 19.19 72.57Q19.72 72.88 20.39 73.01ZM39.87 72.7Q40.65 73.14 41.72 73.14Q42.51 73.14 43.16 72.89Q43.66 72.7 44.04 72.38Q44.16 72.28 44.26 72.18Q44.33 72.11 44.4 72.03Q44.76 71.61 44.97 71.05Q45.22 70.39 45.22 69.56Q45.22 68.47 44.78 67.68Q44.55 67.24 44.21 66.92Q43.92 66.64 43.56 66.44Q42.78 66.01 41.72 66.01Q40.92 66.01 40.27 66.25Q39.81 66.43 39.45 66.72Q39.3 66.83 39.17 66.97Q39.09 67.04 39.02 67.12Q38.67 67.54 38.46 68.09Q38.22 68.74 38.22 69.56Q38.22 70.66 38.65 71.46Q38.89 71.92 39.25 72.25Q39.53 72.51 39.87 72.7ZM46.91 75.44Q47.14 75.63 47.52 75.63Q47.91 75.63 48.14 75.44Q48.16 75.42 48.17 75.4Q48.19 75.39 48.21 75.37Q48.41 75.15 48.41 74.75L48.41 71.97Q48.43 72.01 48.45 72.04Q48.69 72.43 49.11 72.71Q49.24 72.8 49.38 72.86Q49.92 73.14 50.6 73.14Q51.42 73.14 52.04 72.79Q52.12 72.75 52.19 72.7Q52.31 72.62 52.42 72.53Q52.93 72.12 53.24 71.46Q53.62 70.66 53.62 69.56Q53.62 68.46 53.24 67.67Q52.95 67.06 52.48 66.66Q52.34 66.54 52.18 66.44Q52.06 66.37 51.93 66.3Q51.34 66.01 50.6 66.01Q49.91 66.01 49.36 66.28Q49.22 66.35 49.08 66.44Q48.69 66.7 48.46 67.07Q48.42 67.14 48.38 67.21L48.38 66.92Q48.38 66.5 48.17 66.28Q48.16 66.27 48.15 66.26Q48.14 66.24 48.12 66.23Q47.9 66.04 47.51 66.04Q47.15 66.04 46.94 66.21Q46.91 66.23 46.88 66.26Q46.87 66.27 46.87 66.27Q46.66 66.49 46.66 66.92L46.66 74.75Q46.66 75.17 46.87 75.39Q46.87 75.4 46.88 75.4Q46.9 75.42 46.91 75.44ZM42.47 71.64Q42.13 71.81 41.72 71.81Q41.26 71.81 40.9 71.61Q40.65 71.47 40.46 71.24Q39.98 70.67 39.98 69.56Q39.98 68.82 40.2 68.33Q40.4 67.86 40.76 67.61Q40.78 67.6 40.8 67.58Q40.86 67.55 40.92 67.52Q41.27 67.34 41.72 67.34Q42.19 67.34 42.54 67.54Q42.78 67.67 42.97 67.89Q43.45 68.45 43.45 69.56Q43.45 70.31 43.23 70.8Q43.04 71.25 42.7 71.5Q42.66 71.53 42.63 71.55Q42.55 71.6 42.47 71.64ZM50.89 71.63Q50.55 71.81 50.12 71.81Q49.67 71.81 49.32 71.62Q49.06 71.48 48.85 71.24Q48.38 70.67 48.38 69.56Q48.38 68.82 48.59 68.33Q48.8 67.86 49.16 67.61Q49.18 67.6 49.2 67.58Q49.26 67.55 49.32 67.52Q49.67 67.34 50.12 67.34Q50.58 67.34 50.94 67.54Q51.18 67.67 51.37 67.89Q51.85 68.45 51.85 69.56Q51.85 70.31 51.63 70.8Q51.44 71.25 51.1 71.5Q51.06 71.53 51.02 71.55Q50.96 71.59 50.89 71.63Z" fill="#030625" fill-opacity="1.000000" fill-rule="evenodd"/>
</svg>
