<svg width="19.999512" height="19.998535" viewBox="0 0 19.9995 19.9985" fill="none" xmlns="http://www.w3.org/2000/svg" xmlns:xlink="http://www.w3.org/1999/xlink">
    <desc>
        Created with Pixso.
    </desc>
    <defs/>
    <path id="Vector" d="M12.99 7.99L8.99 11.99L6.99 9.99M12.46 2.49C12.77 2.76 13.15 2.91 13.55 2.95L15.15 3.07C15.61 3.11 16.04 3.31 16.36 3.63C16.68 3.95 16.88 4.38 16.91 4.83L17.04 6.43C17.07 6.84 17.23 7.22 17.5 7.53L18.54 8.75C18.83 9.09 18.99 9.54 18.99 9.99C18.99 10.45 18.83 10.89 18.54 11.24L17.5 12.46C17.23 12.77 17.07 13.15 17.04 13.55L16.91 15.15C16.88 15.61 16.68 16.04 16.36 16.36C16.04 16.68 15.61 16.88 15.15 16.91L13.55 17.04C13.15 17.07 12.77 17.23 12.46 17.49L11.24 18.53C10.89 18.83 10.45 18.99 9.99 18.99C9.54 18.99 9.1 18.83 8.75 18.53L7.53 17.49C7.22 17.23 6.84 17.07 6.43 17.04L4.83 16.91C4.38 16.88 3.95 16.68 3.63 16.36C3.31 16.03 3.11 15.61 3.07 15.15L2.95 13.55C2.91 13.15 2.76 12.77 2.49 12.46L1.45 11.24C1.16 10.89 1 10.45 1 9.99C1 9.54 1.16 9.1 1.45 8.75L2.49 7.53C2.76 7.22 2.91 6.84 2.95 6.43L3.07 4.84C3.11 4.38 3.31 3.95 3.63 3.63C3.95 3.31 4.38 3.11 4.84 3.07L6.43 2.95C6.84 2.91 7.22 2.76 7.53 2.49L8.75 1.45C9.1 1.16 9.54 1 9.99 1C10.45 1 10.89 1.16 11.24 1.45L12.46 2.49Z" stroke="#EC8304" stroke-opacity="1.000000" stroke-width="2.000000" stroke-linejoin="round" stroke-linecap="round"/>
</svg>
