<svg width="38.000000" height="38.000000" viewBox="0 0 38 38" fill="none" xmlns="http://www.w3.org/2000/svg" xmlns:xlink="http://www.w3.org/1999/xlink">
    <desc>
        Created with Pixso.
    </desc>
    <defs>
        <clipPath id="clip21_1613">
            <rect id="earth" rx="0.000000" width="16.709333" height="16.709333" transform="translate(10.645333 10.645333)" fill="white" fill-opacity="0"/>
        </clipPath>
    </defs>
    <rect id="Frame 80" rx="18.500000" width="37.000000" height="37.000000" transform="translate(0.500000 0.500000)" fill="#080E59" fill-opacity="1.000000"/>
    <rect id="earth" rx="0.000000" width="16.709333" height="16.709333" transform="translate(10.645333 10.645333)" fill="#FFFFFF" fill-opacity="0"/>
    <g clip-path="url(#clip21_1613)">
        <path id="Vector" d="M14.67 14.83C13.71 15.83 13.13 17.12 13.01 18.49C12.9 19.87 13.26 21.24 14.03 22.38C14.81 23.51 15.95 24.35 17.27 24.75C18.59 25.14 20.01 25.07 21.28 24.54C21.37 23.98 21.18 23.44 21.1 23.25C20.93 22.83 20.36 22.11 19.41 21.12C19.16 20.85 19.18 20.65 19.27 20.04L19.28 19.97C19.34 19.56 19.44 19.31 20.84 19.09C21.55 18.98 21.74 19.26 22 19.65L22.08 19.78C22.33 20.14 22.51 20.23 22.79 20.35C22.91 20.41 23.07 20.48 23.27 20.59C23.76 20.87 23.76 21.19 23.76 21.88L23.76 21.96C23.76 22.25 23.73 22.51 23.69 22.73C24.26 22.01 24.66 21.17 24.86 20.26C25.05 19.36 25.04 18.43 24.81 17.53C24.59 16.63 24.16 15.8 23.56 15.1C22.96 14.4 22.21 13.84 21.36 13.48C20.94 13.76 20.37 14.16 20.18 14.43C20.07 14.57 19.93 15.28 19.46 15.34C19.34 15.35 19.18 15.34 19 15.33C18.54 15.3 17.9 15.26 17.7 15.81C17.57 16.16 17.54 17.12 17.96 17.61C18.03 17.69 18.04 17.84 18 18C17.94 18.22 17.82 18.35 17.78 18.37C17.71 18.33 17.56 18.16 17.46 18.05C17.23 17.78 16.94 17.44 16.56 17.33C16.42 17.29 16.27 17.26 16.12 17.23C15.71 17.14 15.24 17.05 15.13 16.81C15.05 16.65 15.05 16.41 15.05 16.17C15.05 15.85 15.05 15.5 14.9 15.16C14.85 15.04 14.77 14.93 14.67 14.83ZM18.99 26.5C14.85 26.5 11.49 23.14 11.49 19C11.49 14.85 14.85 11.5 18.99 11.5C23.14 11.5 26.49 14.85 26.49 19C26.49 23.14 23.14 26.5 18.99 26.5Z" fill="#E6E7EE" fill-opacity="1.000000" fill-rule="nonzero"/>
    </g>
</svg>
