<svg width="50.000000" height="78.000000" viewBox="0 0 50 78" fill="none" xmlns="http://www.w3.org/2000/svg" xmlns:xlink="http://www.w3.org/1999/xlink">
    <desc>
        Created with Pixso.
    </desc>
    <defs/>
    <rect id="circum:mobile-1" rx="0.000000" width="49.000000" height="49.000000" transform="translate(0.500000 0.500000)" fill="#FFFFFF" fill-opacity="0"/>
    <path id="Vector" d="M20.83 39.44L29.16 39.44C29.44 39.44 29.7 39.33 29.9 39.13C30.09 38.94 30.2 38.67 30.2 38.4C30.2 38.12 30.09 37.86 29.9 37.66C29.7 37.47 29.44 37.36 29.16 37.36L20.83 37.36C20.55 37.36 20.29 37.47 20.09 37.66C19.9 37.86 19.79 38.12 19.79 38.4C19.79 38.67 19.9 38.94 20.09 39.13C20.29 39.33 20.55 39.44 20.83 39.44Z" fill="#030625" fill-opacity="1.000000" fill-rule="nonzero"/>
    <path id="Vector" d="M34.84 45.7L15.15 45.7C13.84 45.62 12.62 45.03 11.74 44.05C10.87 43.08 10.42 41.8 10.48 40.49L10.48 9.5C10.42 8.19 10.87 6.91 11.74 5.94C12.62 4.96 13.84 4.37 15.15 4.29L34.84 4.29C36.15 4.37 37.37 4.96 38.25 5.94C39.12 6.91 39.57 8.19 39.51 9.5L39.51 40.49C39.57 41.8 39.12 43.08 38.25 44.05C37.37 45.03 36.15 45.62 34.84 45.7ZM15.15 6.38C14.39 6.46 13.7 6.83 13.22 7.41C12.74 8 12.5 8.75 12.57 9.5L12.57 40.49C12.5 41.24 12.74 41.99 13.22 42.58C13.7 43.16 14.39 43.53 15.15 43.61L34.84 43.61C35.6 43.53 36.29 43.16 36.77 42.58C37.25 41.99 37.49 41.24 37.42 40.49L37.42 9.5C37.49 8.75 37.25 8 36.77 7.41C36.29 6.83 35.6 6.46 34.84 6.38L15.15 6.38Z" fill="#030625" fill-opacity="1.000000" fill-rule="nonzero"/>
    <path id="Mobile" d="M29.63 64.5Q29.9 64.75 30.39 64.75Q30.89 64.75 31.16 64.5Q31.22 64.45 31.27 64.38Q31.42 64.16 31.42 63.82Q31.42 63.46 31.25 63.23Q31.21 63.18 31.16 63.14Q30.89 62.9 30.39 62.9Q29.9 62.9 29.63 63.14Q29.57 63.19 29.52 63.25Q29.35 63.47 29.35 63.82Q29.35 64.15 29.5 64.36Q29.56 64.44 29.63 64.5L29.63 64.5ZM1.37 72.94Q1.57 73.11 1.91 73.11Q2.28 73.11 2.48 72.92Q2.5 72.91 2.52 72.89Q2.53 72.87 2.55 72.86Q2.73 72.64 2.73 72.27L2.73 66.38L5.36 71.15Q5.48 71.37 5.65 71.49Q5.82 71.61 6.09 71.61Q6.35 71.61 6.51 71.5Q6.66 71.39 6.8 71.15L9.43 66.35L9.43 72.27Q9.43 72.63 9.61 72.85Q9.62 72.87 9.64 72.89Q9.67 72.92 9.71 72.95Q9.91 73.11 10.24 73.11Q10.61 73.11 10.81 72.92Q10.83 72.91 10.85 72.89Q10.86 72.87 10.87 72.86Q11.06 72.64 11.06 72.27L11.06 63.85Q11.06 63.47 10.87 63.26Q10.86 63.25 10.84 63.23Q10.82 63.21 10.79 63.19Q10.59 63.01 10.24 63.01Q9.89 63.01 9.7 63.15Q9.5 63.28 9.33 63.6L6.1 69.58L2.87 63.6Q2.7 63.28 2.49 63.15Q2.29 63.01 1.94 63.01Q1.61 63.01 1.39 63.17Q1.36 63.2 1.32 63.23Q1.3 63.26 1.28 63.28Q1.1 63.49 1.1 63.85L1.1 72.27Q1.1 72.63 1.28 72.85Q1.29 72.87 1.31 72.89Q1.34 72.91 1.37 72.94ZM23.82 72.86Q24.38 73.14 25.07 73.14Q25.8 73.14 26.39 72.84Q26.52 72.78 26.64 72.7Q26.78 72.61 26.91 72.51Q27.4 72.1 27.7 71.46Q28.08 70.66 28.08 69.56Q28.08 68.46 27.7 67.67Q27.4 67.04 26.91 66.64Q26.79 66.53 26.65 66.44Q26.58 66.4 26.51 66.36Q25.89 66.01 25.07 66.01Q24.37 66.01 23.81 66.29Q23.69 66.35 23.57 66.43Q23.16 66.7 22.92 67.07Q22.9 67.11 22.87 67.16L22.87 63.9Q22.87 63.49 22.67 63.27Q22.65 63.26 22.64 63.24Q22.62 63.22 22.6 63.21Q22.37 63.01 21.99 63.01Q21.6 63.01 21.38 63.21Q21.36 63.22 21.34 63.24Q21.34 63.25 21.33 63.25Q21.12 63.47 21.12 63.9L21.12 72.21Q21.12 72.63 21.33 72.87Q21.34 72.87 21.34 72.88Q21.36 72.9 21.39 72.92Q21.61 73.11 21.99 73.11Q22.34 73.11 22.56 72.94Q22.59 72.91 22.62 72.88Q22.63 72.87 22.64 72.86Q22.84 72.63 22.84 72.21L22.84 71.93Q22.89 72.03 22.95 72.12Q23.18 72.46 23.55 72.7Q23.68 72.79 23.82 72.86ZM33.84 72.64Q34.42 73.14 35.43 73.14Q35.58 73.14 35.74 73.12Q35.89 73.11 36.03 73.09Q36.33 73.05 36.48 72.88Q36.49 72.87 36.49 72.85Q36.63 72.66 36.63 72.31Q36.63 71.9 36.56 71.77Q36.54 71.73 36.51 71.71Q36.44 71.65 36.3 71.67Q36.2 71.68 36.1 71.69Q36 71.69 35.89 71.69Q35.5 71.69 35.24 71.5Q35.17 71.45 35.11 71.39Q34.84 71.08 34.84 70.43L34.84 63.9Q34.84 63.49 34.64 63.27Q34.62 63.26 34.61 63.24Q34.59 63.22 34.57 63.21Q34.34 63.01 33.96 63.01Q33.57 63.01 33.35 63.21Q33.33 63.22 33.31 63.24Q33.31 63.25 33.3 63.25Q33.09 63.47 33.09 63.9L33.09 70.52Q33.09 71.81 33.68 72.47Q33.76 72.56 33.84 72.64ZM14.33 72.7Q15.11 73.14 16.18 73.14Q16.98 73.14 17.62 72.89Q18.12 72.7 18.51 72.38Q18.62 72.28 18.73 72.18Q18.8 72.11 18.86 72.03Q19.23 71.61 19.43 71.05Q19.68 70.39 19.68 69.56Q19.68 68.47 19.25 67.68Q19.01 67.24 18.67 66.92Q18.39 66.64 18.03 66.44Q17.24 66.01 16.18 66.01Q15.38 66.01 14.73 66.25Q14.28 66.43 13.91 66.72Q13.76 66.83 13.63 66.97Q13.56 67.04 13.49 67.12Q13.13 67.54 12.92 68.09Q12.68 68.74 12.68 69.56Q12.68 70.66 13.11 71.46Q13.36 71.92 13.71 72.25Q13.99 72.51 14.33 72.7ZM38.86 72.7Q39.7 73.14 40.86 73.14Q41.41 73.14 42.04 72.99Q42.68 72.84 43.17 72.53Q43.42 72.38 43.53 72.17Q43.62 71.98 43.61 71.79Q43.61 71.78 43.6 71.76Q43.59 71.62 43.52 71.51Q43.49 71.46 43.44 71.41Q43.42 71.39 43.39 71.36Q43.27 71.27 43.08 71.25Q42.86 71.23 42.57 71.4Q42.35 71.52 42.13 71.6Q41.92 71.67 41.71 71.72Q41.25 71.81 40.89 71.81Q39.92 71.81 39.38 71.32Q39.34 71.28 39.3 71.24Q38.87 70.79 38.78 69.97L43.02 69.97Q43.34 69.97 43.51 69.84Q43.58 69.79 43.62 69.73Q43.69 69.61 43.69 69.45Q43.69 68.65 43.47 68.02Q43.26 67.38 42.84 66.93Q42.69 66.77 42.51 66.63Q42.21 66.4 41.85 66.25Q41.27 66.01 40.54 66.01Q39.69 66.01 39 66.34Q38.88 66.4 38.77 66.46Q38.42 66.67 38.14 66.94Q37.8 67.27 37.55 67.72Q37.11 68.51 37.11 69.58Q37.11 70.67 37.56 71.47Q37.75 71.8 38 72.07Q38.36 72.45 38.86 72.7ZM38.79 68.96Q38.84 68.56 38.98 68.24Q39.15 67.85 39.44 67.6Q39.52 67.53 39.61 67.47Q39.62 67.46 39.63 67.46Q40.04 67.2 40.61 67.2Q41.14 67.2 41.5 67.43Q41.57 67.48 41.63 67.53Q41.89 67.75 42.04 68.09Q42.2 68.45 42.23 68.96L38.79 68.96ZM29.84 72.93Q30.05 73.09 30.39 73.09Q30.76 73.09 30.97 72.91Q31.01 72.88 31.04 72.84Q31.05 72.84 31.05 72.83Q31.27 72.58 31.27 72.14L31.27 67Q31.27 66.55 31.04 66.3Q31.04 66.3 31.04 66.3Q31 66.25 30.95 66.22Q30.74 66.05 30.39 66.05Q30.04 66.05 29.82 66.22Q29.78 66.25 29.74 66.3Q29.52 66.54 29.52 67L29.52 72.14Q29.52 72.59 29.74 72.84L29.74 72.84Q29.79 72.89 29.84 72.93ZM16.93 71.64Q16.59 71.81 16.18 71.81Q15.72 71.81 15.37 71.61Q15.12 71.47 14.92 71.24Q14.44 70.67 14.44 69.56Q14.44 68.82 14.66 68.33Q14.87 67.86 15.22 67.61Q15.25 67.6 15.27 67.58Q15.32 67.55 15.38 67.52Q15.73 67.34 16.18 67.34Q16.65 67.34 17.01 67.54Q17.25 67.67 17.44 67.89Q17.92 68.45 17.92 69.56Q17.92 70.31 17.7 70.8Q17.5 71.25 17.16 71.5Q17.13 71.53 17.09 71.55Q17.01 71.6 16.93 71.64ZM25.36 71.63Q25.01 71.81 24.58 71.81Q24.13 71.81 23.78 71.62Q23.52 71.48 23.32 71.24Q22.84 70.67 22.84 69.56Q22.84 68.82 23.06 68.33Q23.26 67.86 23.62 67.61Q23.64 67.6 23.67 67.58Q23.72 67.55 23.78 67.52Q24.13 67.34 24.58 67.34Q25.05 67.34 25.41 67.54Q25.65 67.67 25.84 67.89Q26.32 68.45 26.32 69.56Q26.32 70.31 26.1 70.8Q25.9 71.25 25.56 71.5Q25.53 71.53 25.49 71.55Q25.42 71.59 25.36 71.63Z" fill="#030625" fill-opacity="1.000000" fill-rule="evenodd"/>
</svg>
