<svg width="19.954712" height="19.929077" viewBox="0 0 19.9547 19.9291" fill="none" xmlns="http://www.w3.org/2000/svg" xmlns:xlink="http://www.w3.org/1999/xlink">
    <desc>
        Created with Pixso.
    </desc>
    <defs/>
    <path id="Vector" d="M19.84 8.44C19.56 6.63 18.78 4.93 17.59 3.53C16.4 2.13 14.86 1.09 13.11 0.51C11.37 -0.07 9.51 -0.16 7.72 0.25C5.93 0.66 4.29 1.56 2.98 2.84L2.98 0.83C2.98 0.61 2.89 0.4 2.74 0.24C2.58 0.08 2.37 0 2.15 0C1.93 0 1.71 0.08 1.56 0.24C1.4 0.4 1.31 0.61 1.31 0.83L1.31 4.16C1.31 4.6 1.49 5.03 1.8 5.34C2.11 5.65 2.54 5.83 2.98 5.83L6.31 5.83C6.53 5.83 6.75 5.74 6.9 5.58C7.06 5.43 7.15 5.22 7.15 5C7.15 4.77 7.06 4.56 6.9 4.41C6.75 4.25 6.53 4.16 6.31 4.16L4.02 4.16C5.35 2.81 7.11 1.95 8.99 1.73C10.88 1.52 12.78 1.95 14.39 2.96C15.99 3.97 17.2 5.5 17.82 7.29C18.44 9.09 18.43 11.04 17.79 12.82C17.14 14.61 15.91 16.12 14.29 17.11C12.67 18.1 10.76 18.5 8.88 18.26C7 18.01 5.26 17.13 3.94 15.76C2.63 14.39 1.82 12.62 1.66 10.73C1.64 10.52 1.54 10.34 1.39 10.2C1.23 10.07 1.04 9.99 0.83 10C0.72 10 0.6 10.02 0.49 10.07C0.39 10.11 0.29 10.18 0.21 10.27C0.13 10.36 0.08 10.46 0.04 10.57C0 10.68 -0.01 10.8 0 10.91C0.13 12.24 0.53 13.53 1.16 14.7C1.8 15.87 2.67 16.91 3.71 17.74C4.75 18.57 5.95 19.19 7.23 19.55C8.52 19.91 9.86 20.01 11.19 19.85C12.51 19.68 13.79 19.25 14.95 18.59C16.1 17.92 17.11 17.03 17.92 15.97C18.72 14.9 19.31 13.69 19.64 12.4C19.97 11.1 20.04 9.76 19.84 8.44L19.84 8.44Z" fill="#080E59" fill-opacity="1.000000" fill-rule="nonzero"/>
</svg>
