<svg width="90.217773" height="80.869507" viewBox="0 0 90.2178 80.8695" fill="none" xmlns="http://www.w3.org/2000/svg" xmlns:xlink="http://www.w3.org/1999/xlink">
    <desc>
        Created with Pixso.
    </desc>
    <defs/>
    <path id="Vector" d="M6.51 14.59L24.13 26.33L41.69 1.75C42.08 1.21 42.59 0.77 43.18 0.46C43.78 0.15 44.44 0 45.1 0C45.77 0 46.43 0.15 47.02 0.46C47.62 0.77 48.13 1.21 48.52 1.75L66.08 26.33L83.69 14.59C84.36 14.15 85.14 13.9 85.94 13.89C86.74 13.87 87.53 14.09 88.21 14.51C88.9 14.93 89.44 15.53 89.79 16.25C90.14 16.97 90.28 17.78 90.18 18.57L83.29 77.16C83.17 78.18 82.68 79.12 81.91 79.8C81.15 80.49 80.15 80.86 79.13 80.86L11.08 80.86C10.05 80.86 9.06 80.49 8.29 79.8C7.53 79.12 7.04 78.18 6.92 77.16L0.02 18.57C-0.07 17.77 0.07 16.97 0.42 16.25C0.77 15.53 1.31 14.92 2 14.51C2.68 14.09 3.47 13.87 4.27 13.89C5.07 13.9 5.85 14.15 6.51 14.59ZM45.1 55.7C47.33 55.7 49.46 54.81 51.04 53.24C52.61 51.67 53.49 49.53 53.49 47.31C53.49 45.08 52.61 42.95 51.04 41.38C49.46 39.8 47.33 38.92 45.1 38.92C42.88 38.92 40.74 39.8 39.17 41.38C37.6 42.95 36.71 45.08 36.71 47.31C36.71 49.53 37.6 51.67 39.17 53.24C40.74 54.81 42.88 55.7 45.1 55.7Z" fill="#FFFFFF" fill-opacity="1.000000" fill-rule="nonzero"/>
</svg>
