<svg width="44.000000" height="44.000000" viewBox="0 0 44 44" fill="none" xmlns="http://www.w3.org/2000/svg" xmlns:xlink="http://www.w3.org/1999/xlink">
    <desc>
        Created with Pixso.
    </desc>
    <defs/>
    <rect id="Frame 139" rx="21.500000" width="43.000000" height="43.000000" transform="translate(0.500000 0.500000)" fill="#080E59" fill-opacity="1.000000"/>
    <path id="Ellipse 3" d="M15.07 13.56C12.84 15.03 11.29 17.12 10.53 19.43C9.6 22.25 9.92 25.16 11.19 27.62C12.55 30.29 14.89 32.21 17.61 33.21C20.54 34.3 23.66 34.22 26.38 33.21C29.31 32.14 31.54 30.09 32.8 27.63C34.17 24.97 34.32 22.05 33.46 19.43C32.65 16.96 31.01 14.94 28.92 13.56C28.42 13.22 27.75 13.41 27.43 13.92C27.08 14.48 27.29 15.21 27.82 15.59C29.45 16.75 30.59 18.34 31.17 20.09C31.91 22.35 31.66 24.67 30.64 26.65C29.55 28.78 27.68 30.32 25.5 31.12C23.16 31.99 20.67 31.92 18.49 31.12C16.14 30.26 14.36 28.62 13.35 26.65C12.25 24.52 12.13 22.19 12.82 20.09C13.43 18.23 14.63 16.69 16.17 15.59C16.71 15.21 16.91 14.48 16.56 13.92C16.24 13.41 15.57 13.22 15.07 13.56Z" fill="#E6E7EE" fill-opacity="1.000000" fill-rule="evenodd"/>
    <rect id="Rectangle 1" x="20.799988" y="10.000000" rx="1.200000" width="2.400000" height="7.500000" fill="#E6E7EE" fill-opacity="1.000000"/>
</svg>
