<svg width="352.000000" height="261.464355" viewBox="0 0 352 261.464" fill="none" xmlns="http://www.w3.org/2000/svg" xmlns:xlink="http://www.w3.org/1999/xlink">
    <desc>
        Created with Pixso.
    </desc>
    <defs>
        <clipPath id="clip358_1534">
            <rect id="undraw_connected_world_wuay 1" rx="0.000000" width="351.700836" height="261.165070" transform="translate(0.149583 0.149583)" fill="white" fill-opacity="0"/>
        </clipPath>
    </defs>
    <rect id="undraw_connected_world_wuay 1" rx="0.000000" width="351.700836" height="261.165070" transform="translate(0.149583 0.149583)" fill="#FFFFFF" fill-opacity="0"/>
    <g clip-path="url(#clip358_1534)">
        <path id="Vector" d="M324.28 63.55C284.33 7.96 199.93 -14.59 116.93 9.7C73.05 22.54 30.75 48.26 9.78 98.08C-27.7 187.14 50.99 215.58 102.45 224.64C127.33 229.03 150.77 236.39 172.18 246.41C210.71 264.45 278.91 280.43 330.33 205.31C367.61 150.86 350.89 100.58 324.28 63.55Z" fill="#F2F2F2" fill-opacity="1.000000" fill-rule="nonzero"/>
        <path id="Vector" d="M92.66 74.55C92.54 73.67 92.32 72.8 91.98 71.98C91.94 71.82 91.87 71.68 91.76 71.55C91.66 71.43 91.54 71.32 91.39 71.25C91.2 71.2 91 71.2 90.8 71.24L87.79 71.7C87.53 71.72 87.29 71.81 87.1 71.97C86.7 72.38 87.09 73.05 87.08 73.62C87.07 74.26 86.5 74.78 85.88 74.95C85.25 75.08 84.6 75.07 83.97 74.93L79.75 74.28C80.99 73.88 82.1 73.14 82.94 72.14C83.5 71.49 83.79 70.26 82.99 69.95C82.75 69.88 82.5 69.86 82.26 69.89C80.35 69.9 78.84 68.31 77.05 67.63C75.91 67.23 74.66 67.2 73.5 67.55C72.34 67.9 71.31 68.6 70.57 69.57L72.82 69.67C73.03 69.66 73.24 69.72 73.42 69.83C73.91 70.24 73.3 71.02 73.37 71.65C73.46 72.47 74.55 72.65 75.38 72.73C76.2 72.82 77.25 73.49 76.85 74.21C72.71 75.64 68.49 71.42 64.14 71.94C63.04 72.07 62 72.51 60.93 72.78C54.36 74.44 47.57 70.01 40.86 70.95C39.37 71.2 37.9 71.59 36.48 72.1C35.57 72.4 34.62 72.72 33.95 73.42C33.29 74.12 33.04 75.3 33.67 76.03C31.93 76.17 30.19 76.01 28.52 75.54C28.97 75.79 29.34 76.16 29.61 76.61C29.87 77.06 30 77.57 30 78.08C27.29 78.53 24.66 79.33 22.17 80.47C22.64 81.24 23.18 81.97 23.79 82.63L20.37 84.83C21.52 85.12 22.12 86.7 21.45 87.68C22.65 87.15 23.39 85.77 24.67 85.49C25.51 85.31 26.37 85.65 27.17 85.97C27.96 86.3 28.84 86.61 29.67 86.37C30.49 86.12 31.1 85.05 30.57 84.37C34.1 83.34 37.75 82.77 41.42 82.68C41.7 82.64 41.99 82.7 42.24 82.83C42.72 83.17 42.59 83.88 42.57 84.46C42.54 85.05 43 85.81 43.52 85.55C42.9 86.08 43.43 87.08 44.01 87.63C44.6 88.19 45.31 88.96 44.95 89.68C44.85 89.87 44.69 90.03 44.6 90.22C44.34 90.78 44.76 91.44 45.26 91.81C45.76 92.19 46.37 92.45 46.71 92.97C47.06 93.48 46.9 94.39 46.28 94.46L44.52 92.23C43.92 92.85 43.51 93.63 43.34 94.48C45.2 96.01 45.48 99.11 43.92 100.95C43.12 101.89 41.99 102.46 41 103.19C40 103.92 39.09 104.96 39.09 106.19C39.09 108.32 38.92 110.3 39.72 112.27C41.19 115.91 42.89 119.45 44.8 122.88C45.3 123.77 45.95 124.76 46.97 124.92C45.69 121.78 44.53 118.6 43.5 115.37C44.17 115.37 44.94 115.42 45.34 115.97C45.66 116.42 45.59 117.03 45.69 117.58C45.82 118.1 46.04 118.61 46.33 119.07L52.48 130.02C52.99 130.93 53.57 131.9 54.54 132.27C55.17 132.5 55.89 132.46 56.46 132.8C56.91 133.06 57.21 133.53 57.67 133.78C58.97 134.49 60.77 133.14 61.98 133.98C62.32 134.22 62.54 134.6 62.86 134.88C63.98 135.85 65.81 135.2 67.1 135.92C67.94 136.39 68.37 137.32 68.81 138.16C69.92 140.28 71.72 142.35 74.1 142.51C74.85 142.57 75.61 142.42 76.34 142.59C77.07 142.76 77.79 143.39 77.68 144.14C77.48 145.41 78.1 146.8 77.93 148.07C77.63 150.39 74.33 151.41 74.05 153.74C73.99 154.25 74.09 154.77 73.97 155.27C73.82 155.88 73.36 156.38 73.2 156.98C72.89 158.13 73.71 159.28 74.62 160.05C75.52 160.83 76.6 161.49 77.1 162.58C77.62 163.72 77.36 165.06 77.53 166.3C77.9 169.02 80.26 171.04 82.67 172.34C83.41 172.74 84.2 173.13 84.68 173.81C85.3 174.71 85.24 175.89 85.45 176.97C85.96 179.59 88.17 181.76 88.23 184.43C88.28 186.34 87.22 188.06 86.59 189.85C86 191.57 85.78 193.4 85.96 195.21C86.14 197.02 86.71 198.77 87.62 200.34C88.09 201.14 88.66 201.89 88.99 202.75C89.59 204.3 89.4 206.05 89.95 207.61C90.67 209.67 92.67 211.38 92.48 213.56C93.39 215.44 95.39 216.36 97.4 216.92L101.01 217.93C101.7 218.12 102.42 218.31 103.13 218.18C103.83 218.04 104.5 217.45 104.48 216.73C102.71 216.34 100.89 215.91 99.43 214.83C97.97 213.75 96.97 211.83 97.52 210.11C97.78 209.31 98.33 208.38 97.81 207.72C97.51 207.34 96.97 207.24 96.63 206.9C96.11 206.36 96.29 205.45 96.66 204.8C97.04 204.15 97.58 203.57 97.74 202.83C97.81 202.42 97.76 202 97.59 201.61C97.42 201.23 97.13 200.91 96.77 200.7C97.44 200.44 98.05 200.05 98.56 199.55C99.03 199.02 99.25 198.19 98.88 197.58C99.97 197.72 101.27 197.79 101.99 196.95C102.57 196.28 102.53 195.27 102.3 194.42C102.07 193.57 101.69 192.74 101.67 191.86C104.21 191.98 106.74 191.89 109.26 191.6C108.9 190.37 108.07 189.34 106.95 188.71C108.09 188.52 109.13 187.15 109.49 186.05C109.85 184.95 109.76 183.76 109.54 182.62C109.45 182.33 109.44 182.02 109.5 181.73C109.63 181.32 110.03 181.07 110.41 180.85L116.06 177.6C116.4 177.43 116.71 177.21 116.97 176.94C117.56 176.24 117.47 175.19 117.17 174.32C116.87 173.46 116.38 172.65 116.26 171.74C115.91 169.03 118.82 167.08 119.8 164.53C120.18 163.53 120.26 162.44 120.34 161.37C120.42 160.22 120.42 158.88 119.54 158.14C118.69 157.43 117.37 157.59 116.48 156.93C115.67 156.32 115.39 155.15 114.5 154.66C113.7 154.21 112.69 154.5 111.79 154.29C110.21 153.92 109.22 152.1 107.61 151.93C106.7 151.84 105.67 152.28 104.93 151.75C104.27 151.28 104.24 150.35 104.12 149.55C103.9 148.32 103.31 147.17 102.42 146.29C101.53 145.4 100.4 144.8 99.16 144.58C98.22 144.43 97.2 144.48 96.41 143.97C95.6 143.45 95.23 142.47 94.59 141.75C93.57 140.58 91.96 140.17 90.45 139.82L84.32 138.37C83.23 138.12 81.83 137.98 81.24 138.94C81.07 139.3 80.95 139.68 80.88 140.08C80.66 140.8 80.22 141.43 79.62 141.88C79.02 142.33 78.29 142.58 77.54 142.59C77.03 141.71 76.2 141.07 75.22 140.79C74.6 140.62 73.93 140.6 73.34 140.34C73.01 140.19 72.73 139.96 72.49 139.69C72.26 139.42 72.08 139.1 71.97 138.76C71.87 138.41 71.83 138.05 71.87 137.7C71.91 137.34 72.02 136.99 72.19 136.68C72.54 136.05 72.68 135.32 72.58 134.6C72.48 133.89 72.14 133.23 71.63 132.72C70.59 131.78 69.08 131.56 67.68 131.65C67.31 130.85 67.92 129.95 68.58 129.37C69.24 128.79 70.05 128.22 70.19 127.35C70.42 125.99 68.67 124.95 67.35 125.36C66.03 125.76 65.19 127.05 64.63 128.31C64.31 129.04 64.04 129.8 63.53 130.42C63.03 131.03 62.21 131.47 61.45 131.27C60.36 130.99 59.94 129.7 59.7 128.6C59.37 127.13 59.05 125.64 59.11 124.13C59.18 122.62 59.69 121.08 60.8 120.06C62.61 118.4 65.39 118.56 67.83 118.83C67.25 118.18 67.39 117.08 68.01 116.47C68.34 116.18 68.73 115.97 69.15 115.87C69.58 115.76 70.02 115.77 70.44 115.87C71.18 116.02 71.84 116.42 72.32 117C73.02 117.84 73.21 118.99 73.74 119.95C74.26 120.91 75.44 121.72 76.41 121.21C77.24 120.76 77.37 119.61 77.17 118.69C76.96 117.76 76.52 116.87 76.59 115.93C76.74 114.13 78.6 113.05 80.25 112.3C81.89 111.56 83.77 110.57 84.03 108.78C84.04 108.43 84.11 108.09 84.23 107.76C84.41 107.47 84.66 107.23 84.97 107.07C89.77 103.9 94.64 100.69 100.13 98.95C100.42 98.86 100.45 98.96 100.74 98.89C101.15 98.66 100.88 98 100.49 97.74C100.1 97.48 99.58 97.28 99.48 96.82C99.4 96.48 99.6 96.15 99.65 95.81C99.78 94.97 98.78 94.19 98 94.53C97.56 93.95 98.43 93.27 99.13 93.07C101.25 92.49 103.42 92.14 105.62 92.01C105.87 91.97 106.13 92.02 106.35 92.14C106.72 92.39 106.68 92.98 106.41 93.34C106.15 93.71 105.75 93.94 105.42 94.24C105.07 94.59 104.81 95.03 104.69 95.51C104.57 95.99 104.58 96.49 104.72 96.97C105.86 97.55 107.11 98.15 108.38 97.95C109.64 97.74 110.77 96.32 110.17 95.18C109.62 94.12 107.95 93.88 107.67 92.72C107.33 91.36 109.25 90.15 108.82 88.82C108.63 88.24 108.05 87.89 107.6 87.47C107.08 86.96 106.72 86.29 106.58 85.57C106.43 84.84 106.51 84.1 106.8 83.42C106.08 83.55 105.33 83.5 104.63 83.28C103.92 83.06 103.28 82.67 102.76 82.15C101.79 81.17 101.02 79.63 99.64 79.68C98.38 79.72 97.3 81.19 96.12 80.74C95.83 80.63 95.52 80.41 95.24 80.54C95.15 80.6 95.07 80.68 95.01 80.77C94.96 80.86 94.92 80.97 94.91 81.08C94.61 82.51 95.13 84.14 94.35 85.38C93.5 86.73 91.53 86.92 90.5 88.13C89.95 88.79 89.73 89.68 89.21 90.37C88.7 91.07 87.61 91.51 86.99 90.91C87.3 90.28 87.38 89.57 87.23 88.9C87.08 88.22 86.7 87.62 86.16 87.18C85.59 86.81 84.97 86.51 84.32 86.29C83.6 85.98 82.91 85.6 82.27 85.14C81.95 84.95 81.69 84.67 81.52 84.34C81.38 83.92 81.4 83.47 81.57 83.06C81.88 82.17 82.43 81.37 83.16 80.77C83.9 80.16 84.78 79.77 85.72 79.62C86.54 79.51 87.49 79.55 88.04 78.93C88.33 78.6 88.48 78.1 88.89 77.96C89.16 77.91 89.44 77.94 89.68 78.06L92.75 79.14C93.09 79.29 93.47 79.35 93.84 79.32C94.03 79.29 94.2 79.2 94.31 79.05C94.43 78.91 94.49 78.73 94.48 78.54C94.38 78.03 93.6 77.79 93.67 77.27C93.71 77.11 93.8 76.96 93.93 76.84C95.03 75.66 96.39 74.75 97.89 74.15C99.39 73.56 101.01 73.31 102.62 73.41C103.01 74.05 102.39 74.8 101.89 75.34C101.38 75.88 100.97 76.85 101.58 77.27C101.84 77.4 102.12 77.46 102.4 77.45C103.15 77.55 103.89 77.78 104.57 78.11C105.63 78.57 106.67 79.08 107.69 79.62C107.6 78.95 107.51 78.25 107.77 77.62C108.02 76.99 108.74 76.5 109.38 76.74C109.99 76.98 110.3 77.78 110.95 77.86C111.81 77.96 112.15 76.68 111.79 75.89C111.43 75.09 110.71 74.43 110.65 73.56C110.61 72.97 110.84 72.25 110.37 71.89C110.2 71.79 110.01 71.72 109.82 71.7L98.12 69.55C97.43 69.42 96.43 69.52 96.4 70.22C96.38 70.62 96.73 71.01 96.57 71.37C96.41 71.75 95.86 71.72 95.46 71.85C94.85 72.07 94.54 72.8 94.6 73.45C94.71 74.1 94.96 74.71 95.33 75.25C94.57 74.93 93.42 74.87 92.66 74.55Z" fill="#3F3D56" fill-opacity="1.000000" fill-rule="nonzero"/>
        <path id="Vector" d="M83.33 64.63C82.59 64.38 81.79 64.37 81.05 64.59C80.31 64.82 79.65 65.26 79.17 65.87C78.98 66.13 78.81 66.48 78.97 66.75C79.21 67.14 79.79 66.99 80.23 66.85C80.87 66.62 81.56 66.6 82.21 66.8C82.62 66.94 82.98 67.19 83.39 67.32C83.59 67.41 83.81 67.43 84.02 67.4C84.24 67.37 84.44 67.28 84.6 67.14C84.89 66.86 84.9 66.41 84.9 66.01C84.92 65.88 84.91 65.74 84.87 65.61C84.83 65.48 84.76 65.36 84.67 65.26C84.51 65.17 84.32 65.11 84.13 65.1C83.71 65.02 83.33 64.8 83.05 64.47L83.33 64.63Z" fill="#3F3D56" fill-opacity="1.000000" fill-rule="nonzero"/>
        <path id="Vector" d="M87.54 63.45C87.38 63.44 87.21 63.48 87.07 63.55C86.92 63.62 86.79 63.73 86.7 63.87C86.6 64.01 86.55 64.16 86.53 64.33C86.52 64.49 86.54 64.66 86.61 64.81C87.12 64.95 87.65 64.98 88.17 64.91C88.43 64.87 88.67 64.75 88.86 64.58C89.06 64.4 89.19 64.17 89.26 63.91C88.64 64.02 88.01 63.9 87.48 63.57L87.54 63.45Z" fill="#3F3D56" fill-opacity="1.000000" fill-rule="nonzero"/>
        <path id="Vector" d="M101.69 61.49C100.31 61.79 98.97 62.24 97.7 62.85C98.3 63.08 98.81 63.5 99.15 64.04C99.5 64.58 99.66 65.22 99.61 65.86C99.56 66.11 99.56 66.36 99.63 66.61C99.78 66.96 100.2 67.09 100.58 67.19C101.25 67.39 101.95 67.48 102.65 67.45C103 67.43 103.34 67.33 103.64 67.14C103.94 66.96 104.19 66.71 104.36 66.4C104.46 66.11 104.58 65.83 104.72 65.56C105.62 64.19 108.27 65.84 109.24 64.53C109.57 64.06 109.54 63.36 109.98 63C110.21 62.83 110.48 62.73 110.75 62.7C112.69 62.32 114.64 62.04 116.6 61.87C117.53 61.79 118.75 61.45 118.75 60.52C115.25 59.83 111.62 60.32 108.42 61.91C107.27 62.49 105.74 63.7 104.63 62.94C104.22 62.65 104.24 61.88 103.67 61.56C103.08 61.23 102.31 61.36 101.69 61.49Z" fill="#3F3D56" fill-opacity="1.000000" fill-rule="nonzero"/>
        <path id="Vector" d="M113.15 63.64L114.79 63.95C114.49 63.94 114.19 63.99 113.9 64.1C113.62 64.21 113.37 64.39 113.16 64.6C112.95 64.82 112.79 65.08 112.69 65.37C112.59 65.65 112.55 65.96 112.57 66.26C114.11 66.78 115.79 66.27 117.41 66.34C119.04 66.41 120.92 67.57 120.65 69.17C120.56 69.65 120.28 70.14 120.43 70.61C120.53 70.94 120.82 71.17 120.99 71.47C121.33 72.1 121.05 72.9 120.62 73.47C120.19 74.05 119.61 74.5 119.24 75.11C118.3 76.63 118.83 78.59 119.39 80.28C119.55 80.92 119.85 81.52 120.27 82.03C121.1 82.91 122.45 82.99 123.66 83.01C124.54 83.02 125.55 82.98 126.11 82.3C126.83 81.4 126.33 80.01 126.8 78.97C127.24 78.02 128.35 77.61 129.35 77.32C131.19 76.79 133.07 76.34 134.8 75.54C136.96 74.55 138.98 73 141.36 72.87C142.02 72.84 142.7 72.91 143.35 72.73C143.99 72.55 144.6 71.99 144.55 71.33C144.51 70.76 144.03 70.34 143.65 69.92C143.27 69.49 142.98 68.83 143.33 68.37L149.55 67.21C149.11 66.01 148.76 64.43 149.78 63.65C150.14 63.36 150.63 63.25 150.94 62.91C151.47 62.33 151.21 61.33 150.59 60.83C149.98 60.34 149.15 60.22 148.37 60.16C145.64 59.93 142.9 60.08 140.16 60.23C134.82 60.52 129.48 60.82 124.13 61.11C123.06 61.17 121.82 61.08 120.83 61.44C119.99 61.75 119.4 62.33 118.45 62.53C116.68 62.9 114.74 62.65 113.15 63.64Z" fill="#3F3D56" fill-opacity="1.000000" fill-rule="nonzero"/>
        <path id="Vector" d="M142.61 76.63C142.44 76.61 142.27 76.65 142.13 76.74C142.04 76.85 141.98 76.98 141.97 77.11C141.87 77.72 142 78.34 142.33 78.86C142.5 79.11 142.73 79.31 143.01 79.45C143.28 79.58 143.59 79.63 143.89 79.61C144.63 79.51 145.18 78.88 145.86 78.57C146.91 78.1 151.37 77.36 148.28 75.69C147.22 75.12 146.53 75.63 145.7 76C144.74 76.49 143.68 76.71 142.61 76.63Z" fill="#3F3D56" fill-opacity="1.000000" fill-rule="nonzero"/>
        <path id="Vector" d="M169.61 62.69C169.25 62.84 168.95 63.1 168.75 63.44C168.66 63.61 168.64 63.81 168.69 64C168.75 64.18 168.87 64.34 169.04 64.44C169.17 64.49 169.31 64.51 169.45 64.5L170.92 64.55C171.54 64.57 172.32 64.7 172.48 65.3C172.61 65.74 172.33 66.32 172.67 66.63C172.81 66.74 172.98 66.81 173.16 66.83C173.65 66.95 174.15 66.97 174.64 66.87C175.7 66.59 175.14 65.94 175.48 65.36C175.99 64.48 175.9 65.01 176.81 64.5C177.47 64.13 178.34 63.45 177.78 62.49C176.81 60.83 171.04 61.98 169.61 62.69Z" fill="#3F3D56" fill-opacity="1.000000" fill-rule="nonzero"/>
        <path id="Vector" d="M198.5 61.86L197.65 61.97C195.73 62.23 193.8 62.49 191.96 63.06C192.76 63.38 193.59 63.58 194.45 63.67C194.92 63.7 195.39 63.76 195.84 63.87C196.66 64.12 197.48 64.74 198.27 64.42C198.76 64.22 198.92 63.71 199.32 63.44C199.6 63.26 200.66 62.96 200.78 62.77C201.74 61.25 199.23 61.76 198.5 61.86Z" fill="#3F3D56" fill-opacity="1.000000" fill-rule="nonzero"/>
        <path id="Vector" d="M202.23 65.72C201.09 66.36 200.04 67.13 199.09 68.02C198.69 68.39 198.28 68.86 198.32 69.41C198.37 70.13 199.14 70.56 199.81 70.84L202.53 71.99C202.86 71.53 202.56 70.88 202.22 70.43C201.88 69.97 201.47 69.44 201.62 68.89C201.8 68.27 202.56 68.05 203.2 67.95C204.24 67.77 207.06 67.78 206.72 66.1C206.32 64.12 203.28 65.14 202.23 65.72Z" fill="#3F3D56" fill-opacity="1.000000" fill-rule="nonzero"/>
        <path id="Vector" d="M201.68 177.95C201.42 178.7 201.4 179.58 201.85 180.23C202.35 180.97 203.35 181.24 204.22 181.05C205.09 180.82 205.86 180.33 206.43 179.64C206.95 179.06 207.38 178.4 207.7 177.69C208.14 176.58 208.46 175.43 208.64 174.25L209.48 169.82C209.67 168.83 209.66 165.79 207.84 166.78C207.35 167.05 206.19 169.19 205.67 169.79C204.74 170.88 204.61 171.94 204.12 173.26C203.5 174.91 202.25 176.29 201.68 177.95Z" fill="#3F3D56" fill-opacity="1.000000" fill-rule="nonzero"/>
        <path id="Vector" d="M297.77 200.61C297.17 200.38 296.6 200.1 296.04 199.79C295.48 201.32 295.19 202.94 295.16 204.57L299.24 202.26C299.85 201.91 300.54 201.43 300.53 200.73C300.54 200.64 300.52 200.55 300.48 200.48C300.44 200.4 300.38 200.33 300.31 200.29C300.21 200.25 300.12 200.24 300.02 200.25C299.42 200.3 298.87 200.6 298.29 200.81C297.73 201.01 297.06 201.12 296.54 200.82L297.77 200.61Z" fill="#3F3D56" fill-opacity="1.000000" fill-rule="nonzero"/>
        <path id="Vector" d="M319.26 201.98C318.81 202.1 318.37 202.26 317.95 202.45C317.01 202.92 316.38 203.83 315.54 204.45C314.73 205.05 313.76 205.38 312.81 205.7C312.53 205.95 312.66 206.45 312.97 206.67C313.29 206.85 313.67 206.94 314.04 206.91C315.03 206.93 316.07 206.94 316.94 206.46C317.42 206.15 317.88 205.78 318.3 205.38C319.31 204.54 320.53 203.98 321.73 203.44C322.17 203.27 322.57 203.03 322.93 202.72C323.68 201.98 323.74 200.83 322.64 200.58C321.76 200.37 320.1 201.71 319.26 201.98Z" fill="#3F3D56" fill-opacity="1.000000" fill-rule="nonzero"/>
        <path id="Vector" d="M328.75 195.78C328.8 195.27 328.73 194.75 328.55 194.27C328.37 193.78 328.08 193.35 327.71 192.99C327.7 194.02 327.67 195.11 327.09 195.96C326.68 196.56 326.04 196.97 325.59 197.55C325.14 198.12 324.94 199.04 325.46 199.54C325.8 199.8 326.21 199.94 326.64 199.94C327.69 200.07 328.91 200.14 329.64 199.38C330.05 198.96 330.24 198.35 330.73 198.04C330.91 197.97 331.08 197.85 331.21 197.7C331.41 197.38 331.09 196.96 330.73 196.84C330.37 196.72 329.97 196.78 329.6 196.67C329.24 196.56 328.9 196.15 329.09 195.82L328.75 195.78Z" fill="#3F3D56" fill-opacity="1.000000" fill-rule="nonzero"/>
        <path id="Vector" d="M311.88 158.18C311.32 158.32 310.75 158.35 310.19 158.28C309.25 158.11 308.53 157.4 307.77 156.83C305.97 155.46 303.79 154.7 301.53 154.65C299.48 154.61 297.41 155.16 295.39 154.78C295.52 155.51 296.15 156.06 296.82 156.39C297.49 156.71 298.23 156.88 298.9 157.2C299.98 157.71 300.83 158.6 301.31 159.7C301.52 160.2 301.66 160.75 301.99 161.19C302.66 162.1 303.93 162.29 305.05 162.22C306.51 162.13 308.04 161.7 309.4 162.25C310.44 162.67 311.18 163.58 312.05 164.28C312.92 164.99 314.14 165.52 315.14 165.01C314.1 164.67 313.2 164.01 312.57 163.13C311.93 162.25 311.59 161.18 311.61 160.09C312.58 160.18 315.4 160.15 315.25 158.48C315.12 157.08 312.72 158.03 311.88 158.18Z" fill="#3F3D56" fill-opacity="1.000000" fill-rule="nonzero"/>
        <path id="Vector" d="M299.08 169.65C299.25 168.69 300.2 167.85 299.91 166.93C299.7 166.29 298.96 165.98 298.29 165.96C297.62 165.94 296.96 166.14 296.29 166.16C295.86 166.14 295.42 166.15 294.99 166.18C293.66 166.4 292.84 167.79 291.59 168.29C290.82 168.59 289.97 168.53 289.18 168.74C287.38 169.21 286.24 170.91 284.98 172.28C282.95 174.49 280.31 176.03 277.39 176.71C276.37 176.95 275.27 177.1 274.46 177.76C273.38 178.64 273.12 180.15 272.88 181.52C272.22 185.3 271.2 189.01 269.86 192.6L274.13 193.15C274.94 193.25 275.78 193.35 276.56 193.11C277.13 192.9 277.67 192.61 278.16 192.26C280.06 191.08 282.19 190.31 284.41 190C285.53 189.85 286.7 189.82 287.75 190.24C288.8 190.65 289.7 191.6 289.79 192.72C290.24 192.58 290.72 192.56 291.18 192.68C291.65 192.79 292.07 193.02 292.41 193.36C293.07 194.04 293.51 194.91 293.66 195.86C293.77 196.44 293.88 197.14 294.43 197.39C294.87 197.59 295.37 197.37 295.86 197.33C297.5 197.2 298.86 199.11 300.47 198.78C302.21 198.43 302.63 195.84 304.32 195.32C305.29 195.02 306.65 195.39 307.11 194.48C307.52 193.69 306.7 192.77 306.79 191.88C306.89 190.79 308.18 190.32 309.18 189.85C312.62 188.24 314.25 183.62 312.58 180.21C311.6 178.19 309.66 176.59 309.3 174.38C309.02 172.67 309.69 170.68 308.6 169.33C308.05 168.65 307.11 168.27 306.78 167.45C306.58 166.94 306.66 166.36 306.55 165.82C306.44 165.27 305.96 164.7 305.43 164.85C303.87 165.25 303.38 170.06 302.54 171.23C301.28 173 298.68 171.83 299.08 169.65Z" fill="#3F3D56" fill-opacity="1.000000" fill-rule="nonzero"/>
        <path id="Vector" d="M270.33 160C269.8 159.85 269.22 159.7 268.71 159.91C268.2 160.13 267.9 160.88 268.31 161.25C271.51 161.12 274.72 161 277.9 161.43C281.55 161.93 285.16 163.17 288.83 162.81C286.74 162.19 284.6 161.69 282.45 161.33L278.86 160.64C277.9 160.44 276.92 160.29 275.94 160.19C273.89 160.02 272.34 160.56 270.33 160Z" fill="#3F3D56" fill-opacity="1.000000" fill-rule="nonzero"/>
        <path id="Vector" d="M273.53 148.86C273.26 148.84 272.94 148.82 272.8 149.05C272.67 149.27 272.82 149.55 272.75 149.8C272.65 150.13 272.21 150.22 271.87 150.17C271.52 150.13 271.15 150.02 270.85 150.18C270.69 150.29 270.57 150.44 270.51 150.62C270.45 150.8 270.45 150.99 270.51 151.17C270.64 151.52 270.84 151.84 271.1 152.11C271.55 152.68 272.07 153.2 272.64 153.65C273.73 154.46 275.22 154.85 275.92 156.03C276.01 156.26 276.16 156.46 276.35 156.62C276.69 156.83 277.12 156.67 277.48 156.51L278.73 155.93C278.96 155.85 279.16 155.71 279.32 155.53C279.6 155.14 279.43 154.59 279.19 154.17C278.95 153.75 278.64 153.32 278.69 152.84C278.78 151.99 279.88 151.66 280.34 150.92C280.79 150.19 280.5 149.24 280.55 148.37C280.61 147.36 281.25 146.04 280.22 145.28C279.35 144.64 278.52 145.23 277.89 145.94C276.58 147.44 275.95 149.06 273.53 148.86Z" fill="#3F3D56" fill-opacity="1.000000" fill-rule="nonzero"/>
        <path id="Vector" d="M281.14 133.72C281.57 134.54 282.46 135.03 282.93 135.83C283.44 136.69 283.38 137.81 283.93 138.65C284.49 139.51 285.62 139.97 285.94 140.95C286.29 142.02 285.5 143.32 286.13 144.25C286.24 144.4 286.39 144.53 286.56 144.62C286.73 144.71 286.91 144.77 287.1 144.79C287.29 144.81 287.49 144.78 287.67 144.72C287.85 144.66 288.02 144.56 288.16 144.44C288.42 144.15 288.56 143.77 288.55 143.38C288.54 142.99 288.38 142.63 288.1 142.36C287.73 142.02 287.2 141.87 286.89 141.48C286.73 141.25 286.62 140.99 286.58 140.72C286.41 139.93 286.44 139.11 286.66 138.33C286.74 138.13 286.76 137.91 286.72 137.7C286.58 137.3 286.03 137.27 285.65 137.08C284.78 136.66 284.8 135.43 284.95 134.47C284.85 135.11 282.58 134.03 282.34 133.66C281.87 132.95 282.13 131.56 282.03 130.77C281.01 131.26 280.62 132.72 281.14 133.72Z" fill="#3F3D56" fill-opacity="1.000000" fill-rule="nonzero"/>
        <path id="Vector" d="M258.28 146.34C257.86 145.87 257.23 145.38 256.66 145.66C256.24 145.87 256.12 146.47 256.29 146.92C256.49 147.35 256.8 147.73 257.2 148.01C258.37 148.97 259.63 149.84 260.65 150.97C262.48 152.97 263.45 155.68 265.43 157.53C265.83 157.96 266.36 158.25 266.94 158.35C267.52 158.4 268.17 158.03 268.24 157.45C268.29 156.98 267.96 156.55 267.63 156.2C266.86 155.36 266.02 154.59 265.29 153.71C264.95 153.37 264.74 152.93 264.69 152.46C264.69 151.98 265.12 151.49 265.57 151.61C265.02 151.46 264.6 150.54 263.79 150.36C263.1 150.22 262.94 150.64 262.13 150.29C260.58 149.63 259.36 147.55 258.28 146.34Z" fill="#3F3D56" fill-opacity="1.000000" fill-rule="nonzero"/>
        <path id="Vector" d="M294.69 100.67C294.25 100.54 293.81 100.38 293.38 100.2C292.23 99.86 290.71 100.7 290.86 101.89C290.97 102.68 291.7 103.22 292.11 103.91C292.71 104.92 292.55 106.22 292.24 107.36C292.16 107.71 292.01 108.04 291.8 108.34C291.51 108.65 291.16 108.9 290.77 109.08C289.21 109.95 287.84 111.12 286.73 112.51C286.61 112.64 286.53 112.8 286.49 112.97C286.43 113.37 286.84 113.66 287.07 114C287.57 114.74 287.21 115.75 287.26 116.65C287.25 116.78 287.28 116.9 287.33 117.02C287.39 117.13 287.47 117.23 287.57 117.31C287.88 117.46 288.24 117.2 288.41 116.9C288.96 115.9 288.54 114.3 289.58 113.82C289.77 113.72 290.01 113.69 290.14 113.52C290.35 113.24 290.15 112.84 290.25 112.51C290.41 112.03 291.08 112 291.59 112.03C292.47 112.06 293.36 111.94 294.2 111.68C294.53 111.6 294.83 111.43 295.07 111.18C295.37 110.79 295.35 110.24 295.28 109.75C294.98 107.31 294.2 104.95 293.01 102.8C293.91 102.91 294.9 103.01 295.68 102.54C296.12 102.28 296.65 101.49 296.43 100.95C296.09 100.09 295.46 100.81 294.69 100.67Z" fill="#3F3D56" fill-opacity="1.000000" fill-rule="nonzero"/>
        <path id="Vector" d="M178.36 114.1C178.47 114.69 178.58 115.3 178.39 115.86C178.2 116.42 177.6 116.89 177.03 116.72C176.59 116.58 176.34 116.14 176.02 115.8C174.29 113.93 170.36 115.01 169.29 112.69C168.85 111.75 169.15 110.61 168.85 109.61C168.66 109.03 168.29 108.54 167.79 108.19C167.28 107.85 166.68 107.69 166.07 107.72C165.52 107.8 164.98 107.97 164.48 108.2C161.08 109.56 157.52 110.45 153.89 110.85C153.19 110.89 152.51 111.02 151.85 111.22C150.36 111.76 149.34 113.15 148.61 114.56C147.89 115.97 147.35 117.5 146.38 118.75C145.36 120.07 143.92 120.99 142.59 121.99C142.07 122.32 141.64 122.77 141.34 123.3C141.05 123.9 141.06 124.59 141.09 125.25L141.36 133.28C141.39 134.31 141.44 135.38 141.9 136.31C142.48 137.46 143.62 138.22 144.41 139.24C145.22 140.28 145.64 141.58 145.6 142.9C145.58 143.43 145.53 144.06 145.94 144.4C146.2 144.56 146.49 144.64 146.79 144.64L157.65 145.53C159.57 145.69 161.68 145.94 162.93 147.4C163.52 148.09 163.99 149.07 164.89 149.15C165.28 149.18 165.66 149.02 166.04 148.99C167.02 148.91 167.88 149.65 168.42 150.47C169.24 151.71 169.61 153.2 169.47 154.68C169.39 155.61 169.1 156.52 169.03 157.45C168.8 161 171.81 164.09 171.87 167.64C171.9 169.74 170.91 171.69 169.94 173.55C171.5 175.92 170.22 179.07 170.84 181.84C171.43 184.46 173.62 186.52 174.17 189.16C174.42 190.36 174.43 191.85 175.5 192.47C175.96 192.7 176.48 192.8 177 192.77C180.13 192.81 183.22 192.1 186.03 190.72C187.34 190.06 188.71 189.09 188.94 187.64C189.12 186.47 188.53 185.16 189.13 184.14C189.84 182.94 191.67 183.03 192.71 182.11C194.41 180.61 193.09 177.75 193.78 175.6C194.39 173.66 196.52 172.63 197.58 170.89C198 170.14 198.29 169.33 198.46 168.49C198.95 166.48 199.25 164.44 199.36 162.38C199.39 161.13 199.48 159.88 199.64 158.64C200.78 151.56 207.77 146.83 210.04 140.03C210.26 139.39 210.36 138.52 209.78 138.15C209.44 137.99 209.05 137.95 208.68 138.04L203.67 138.67C203.05 138.75 202.39 138.82 201.82 138.56C201.25 138.31 200.84 137.58 201.14 137.03C201.99 135.49 200.24 133.55 199.47 131.97C197.37 127.72 194.88 123.67 192.02 119.9C191.84 119.7 191.72 119.45 191.7 119.19L193.12 119.23C192.64 117.51 191.85 115.63 190.17 115C189.23 114.64 188.19 114.77 187.18 114.82C184.3 114.98 181.21 114.54 178.36 114.1Z" fill="#3F3D56" fill-opacity="1.000000" fill-rule="nonzero"/>
        <path id="Vector" d="M187.18 75.31C187.94 76.11 188.78 76.96 189.87 77.1C191.8 77.34 193.18 75.35 194.07 73.62C194.1 74.06 194.3 74.47 194.63 74.77C194.96 75.06 195.4 75.21 195.84 75.19C196.31 75.11 196.77 74.94 197.17 74.67C200.99 72.59 205.26 71.48 209.61 71.46C209.57 71.13 209.65 70.79 209.84 70.52C210.03 70.25 210.31 70.05 210.63 69.98C211.52 69.8 212.32 70.57 212.74 71.36C213.17 72.16 213.43 73.08 214.11 73.67C214.79 74.27 216.1 74.24 216.37 73.38C216.63 72.55 215.77 71.85 215.05 71.36C214.34 70.87 213.58 69.97 214.06 69.25C217.72 68.44 221.39 67.63 225.13 67.47C225.77 67.49 226.4 67.38 227 67.15C227.57 66.87 228.02 66.24 227.87 65.62C227.05 65.81 226.19 65.76 225.41 65.46C224.63 65.16 223.95 64.64 223.46 63.96C228.65 63.53 234.17 63.17 238.77 65.61C239.32 66.79 236.51 67.78 237.26 68.84C237.5 69.19 237.98 69.23 238.39 69.23C241.59 69.29 244.8 69.35 247.96 68.87C249.12 68.69 250.28 68.44 251.44 68.59C253.37 68.82 255.02 70.11 256.92 70.53C257.69 70.7 258.56 70.71 259.21 70.26C259.86 69.81 260.14 68.79 259.61 68.2C261.4 66.45 264.37 66.88 266.73 67.72C269.09 68.56 271.32 69.91 273.82 70.1C275.61 70.24 277.42 69.75 279.19 70.06C280.3 70.25 281.34 70.75 282.42 71.05C284.48 71.63 286.65 71.5 288.79 71.53C294.23 71.61 299.62 72.68 304.67 74.69C305.33 74.9 305.94 75.26 306.44 75.73C306.91 76.24 307.15 77.02 306.84 77.63L301.61 76.87C302.1 77.84 303.37 78 304.41 78.34C305.44 78.67 306.52 79.81 305.9 80.71C304.77 80.35 303.76 81.47 303.19 82.5C302.63 83.53 301.94 84.77 300.76 84.83C299.71 84.89 298.44 83.99 297.75 84.79C298.7 85.99 299.51 87.28 300.17 88.66C300.85 90.07 301.33 91.85 300.41 93.12C300.27 93.35 300.05 93.52 299.79 93.6C299.05 93.79 298.56 92.87 298.03 92.32C297.35 91.62 296.33 91.42 295.41 91.09C294.5 90.77 293.53 90.12 293.46 89.15C293.42 88.55 293.73 87.99 293.97 87.43C294.36 86.49 294.54 85.47 294.47 84.46C294.42 83.64 294.19 82.79 293.6 82.21C293.02 81.64 292 81.46 291.37 81.98C291.08 82.23 290.84 82.62 290.46 82.63C289.78 82.66 289.26 81.48 288.72 81.88C288.79 82.31 288.7 82.75 288.47 83.12C286.85 84.53 284.36 83.93 282.27 84.43C281.27 84.72 280.32 85.13 279.44 85.67C279.1 85.81 278.82 86.05 278.63 86.35C278.37 86.85 278.65 87.5 279.11 87.84C279.6 88.14 280.15 88.33 280.72 88.39C283.27 88.87 285.85 89.62 287.87 91.26C289.88 92.89 291.2 95.6 290.56 98.11L285.54 93.31C285.73 95.33 285.83 97.35 285.86 99.38C285.89 99.77 285.84 100.17 285.7 100.54C285.34 101.34 284.37 101.6 283.52 101.78C283.28 101.82 283.06 101.92 282.86 102.05C282.66 102.19 282.5 102.37 282.37 102.58C282.25 102.78 282.17 103.01 282.14 103.25C282.11 103.49 282.14 103.74 282.21 103.97C282.51 104.95 283.26 105.72 283.96 106.48C284.65 107.25 285.32 108.12 285.42 109.15C285.51 110.17 284.73 111.33 283.7 111.26C282.92 111.21 282.34 110.51 282.01 109.8C281.68 109.09 281.48 108.31 280.98 107.71C279.47 105.89 276.07 106.67 274.72 104.73C274.37 105.12 274.13 105.59 274.02 106.1C273.91 106.61 273.93 107.14 274.08 107.64C274.72 107.25 275.58 107.61 276.05 108.19C276.53 108.76 276.75 109.5 277.12 110.14C277.62 111.01 278.42 111.78 278.49 112.78C278.47 113.16 278.48 113.54 278.51 113.92C278.63 114.52 279.15 114.96 279.5 115.46C280.33 116.64 280.29 118.26 279.76 119.6C279.22 120.94 278.26 122.06 277.32 123.14C275.66 125.04 273.97 126.92 272.01 128.49C271.44 128.94 270.85 129.38 270.5 130.01C270.15 130.64 270.13 131.52 270.67 131.99C270.28 132.01 269.59 132.2 269.21 132.22C269.08 130.68 269.05 129.14 269.12 127.59C267.61 126.86 265.98 128.81 266.17 130.48C266.37 132.15 267.57 133.49 268.43 134.93C269.06 135.99 269.53 137.22 269.32 138.43C269.11 139.64 268.03 140.76 266.81 140.65C264.86 140.48 264.04 137.69 262.12 137.37C261.95 137.33 261.77 137.34 261.61 137.42C261.32 137.57 261.27 137.96 261.26 138.28C261.18 139.88 261.11 141.55 261.74 143.02C262.65 145.18 265.01 146.99 264.51 149.28C261.85 148.04 260.46 145.05 259.83 142.18C259.2 139.3 259.1 136.29 257.97 133.57C257.11 134.67 255.31 133.76 254.52 132.61C253.78 131.52 253.32 130.25 252.6 129.14C251.88 128.04 250.78 127.04 249.46 126.98C248.08 126.92 246.88 127.87 245.82 128.77C244.95 129.5 244.06 130.27 243.55 131.29C242.82 132.78 243.01 134.52 242.97 136.18C242.93 137.97 242.56 139.86 241.33 141.17C240.11 142.49 237.86 142.94 236.51 141.76C235.81 141.14 235.47 140.22 235.17 139.34C233.7 135.07 232.49 130.73 231.52 126.32C231.29 127.33 230.41 128.62 229.57 128.03C229.38 127.87 229.22 127.67 229.12 127.45C227.54 124.78 224.63 123.18 221.69 122.23C218.74 121.27 215.65 120.82 212.74 119.77C211.11 119.17 209.55 118.4 208.09 117.45C207.72 118 207.51 118.63 207.47 119.29C207.43 119.95 207.57 120.6 207.87 121.19C208.52 122.33 209.98 122.99 211.23 122.59C211.87 122.39 212.42 121.94 213.06 121.72C213.7 121.5 214.56 121.6 214.84 122.22C215.11 122.81 214.71 123.53 214.91 124.15C215.21 125.09 216.63 125.16 217.13 126.01C217.5 126.65 217.19 127.5 216.67 128.01C216.14 128.52 215.44 128.81 214.79 129.16C212.71 130.32 211.22 132.31 209.4 133.85C207.57 135.39 205 136.51 202.83 135.53C203.35 132.9 200.22 130.98 199.65 128.36C199.46 127.5 199.55 126.59 199.28 125.75C198.89 124.54 197.82 123.71 196.93 122.79C195.86 121.66 195.03 120.33 194.48 118.88C193.93 117.42 193.68 115.87 193.74 114.32C193.79 113.24 193.99 112.14 193.74 111.09C193.5 110.04 192.62 109.02 191.54 109.07C189.08 109.17 185.97 109.36 184.68 107.26C184.22 106.51 184.02 105.41 184.68 104.83C185.16 104.43 185.85 104.47 186.47 104.53L192.02 105.07C193.32 105.2 194.73 105.31 195.84 104.63C196.96 103.95 197.44 102.15 196.41 101.35C195.65 100.76 194.3 100.79 194.08 99.87C193.9 99.09 194.76 98.21 194.29 97.57C193.96 97.11 193.22 97.23 192.77 97.58C192.31 97.93 191.99 98.44 191.48 98.7C190.6 99.16 189.54 98.72 188.58 98.42C187.63 98.12 186.35 98.1 185.89 98.99C185.37 99.98 186.35 101.27 185.83 102.27C185.15 103.58 182.86 102.83 181.9 103.96C180.81 105.26 182.65 107.19 182.28 108.84C181.81 109.08 181.28 109.18 180.76 109.15C180.23 109.12 179.73 108.96 179.28 108.67C178.85 108.38 178.5 107.97 178.28 107.49C178.06 107.02 177.97 106.49 178.03 105.97C178.12 105.22 178.51 104.46 178.25 103.76C178.04 103.19 177.47 102.85 176.93 102.56L171.54 99.57C171.04 100.51 171.67 101.66 172.46 102.36C173.25 103.05 174.25 103.58 174.77 104.5C175.1 105.14 175.17 105.87 174.97 106.56C174.78 107.25 174.32 107.84 173.71 108.21C173.63 108.26 173.54 108.3 173.45 108.31C173.36 108.33 173.26 108.33 173.17 108.3C173.09 108.25 173.01 108.18 172.95 108.1C172.89 108.02 172.85 107.93 172.83 107.83C171.87 105.4 170.44 102.99 168.16 101.72C165.87 100.45 162.59 100.71 161.09 102.85C160.73 103.36 160.49 103.94 160.18 104.48C158.53 107.34 155 108.7 151.7 108.61C151.38 108.63 151.05 108.55 150.77 108.39C150.24 108.03 150.26 107.24 150.35 106.6L150.69 103.87C150.76 103.32 150.86 102.72 151.3 102.37C151.91 101.89 152.79 102.2 153.57 102.19C154.16 102.16 154.73 101.95 155.19 101.59C155.66 101.23 156.01 100.73 156.18 100.17C156.34 99.6 156.34 99 156.18 98.43C156.02 97.86 155.71 97.34 155.28 96.94C154.92 96.6 154.44 96.18 154.63 95.73C154.71 95.61 154.81 95.5 154.93 95.42C155.05 95.34 155.19 95.28 155.33 95.26C156.73 94.85 158.21 94.75 159.59 94.27C160.96 93.79 162.29 92.81 162.62 91.39C162.72 90.95 162.77 90.43 163.16 90.21C163.35 90.13 163.56 90.08 163.78 90.08C164.52 89.98 165.2 89.6 165.68 89.01C166.16 88.43 166.4 87.69 166.36 86.94C167.02 86.48 167.95 86.82 168.58 87.31C169.22 87.8 169.78 88.45 170.56 88.66C172.01 89.05 173.4 87.77 174.9 87.76C175.53 87.76 176.19 87.98 176.78 87.77C177.38 87.55 177.74 86.96 178.2 86.51C178.66 86.07 179.47 85.8 179.9 86.28L179.53 83.59C180.26 83.78 181.03 83.8 181.77 83.67C182.51 83.53 183.21 83.24 183.83 82.81L179.14 81.23C178.98 81.19 178.83 81.11 178.71 81C178.37 80.63 178.7 80.06 178.98 79.64C179.64 78.64 179.76 77 178.66 76.5C177.92 76.16 177.07 76.57 176.35 76.97L172.93 78.87C172.82 79.52 173.62 79.89 174.11 80.33C174.41 80.6 174.62 80.95 174.71 81.33C174.81 81.72 174.79 82.13 174.65 82.5C174.51 82.87 174.26 83.2 173.93 83.43C173.61 83.66 173.22 83.78 172.82 83.79C173.04 84.08 173.2 84.42 173.28 84.78C173.35 85.14 173.35 85.52 173.26 85.88L170.96 86.04C170.7 86.09 170.43 86.04 170.21 85.9C169.96 85.68 170 85.29 169.94 84.97C169.8 84.19 169.04 83.64 168.25 83.5C167.47 83.36 166.67 83.54 165.9 83.72C165.57 83.83 165.21 83.83 164.88 83.69C164.7 83.57 164.56 83.39 164.48 83.19C164.14 82.36 164.46 81.39 165.01 80.69C165.55 79.99 166.3 79.47 166.97 78.88C168.57 77.48 169.75 75.65 170.37 73.61C171.64 73.08 172.95 72.36 174.22 71.82C176.17 70.84 178.36 70.41 180.55 70.6L184.84 70.68C186.11 70.71 187.41 70.74 188.59 71.22C189.76 71.71 190.8 72.75 190.88 74.02C190.9 74.17 190.89 74.31 190.84 74.45C190.79 74.59 190.71 74.71 190.6 74.81C190.44 74.9 190.25 74.94 190.06 74.93C188.87 74.97 188.37 75.27 187.18 75.31Z" fill="#3F3D56" fill-opacity="1.000000" fill-rule="nonzero"/>
        <path id="Vector" d="M152.97 88.76C153.14 88.6 153.26 88.4 153.32 88.18C153.38 87.95 153.38 87.72 153.31 87.5C152.9 87.34 152.46 87.3 152.03 87.38C151.6 87.46 151.2 87.66 150.88 87.96C150.63 88.21 150.41 88.5 150.23 88.82C149.66 89.74 149.17 90.84 149.49 91.87C149.52 91.98 149.57 92.08 149.64 92.18C149.7 92.27 149.79 92.35 149.89 92.41C150.03 92.47 150.19 92.49 150.35 92.48C150.97 92.48 151.59 92.44 152.21 92.37C152.59 92.32 153.03 92.21 153.17 91.86C153.37 91.4 152.9 90.87 153.04 90.39C153.13 90.17 153.26 89.98 153.43 89.82C153.52 89.74 153.58 89.64 153.62 89.54C153.67 89.43 153.68 89.31 153.67 89.19C153.61 88.97 153.27 88.84 153.14 89.03L152.97 88.76Z" fill="#3F3D56" fill-opacity="1.000000" fill-rule="nonzero"/>
        <path id="Vector" d="M156.19 84.58C155.64 84.46 155.07 84.42 154.51 84.48C154.38 84.47 154.26 84.5 154.15 84.56C154.04 84.64 153.96 84.75 153.93 84.88C153.81 85.26 153.84 85.67 154.01 86.04C154.18 86.4 154.48 86.68 154.85 86.83C155.06 86.88 155.25 86.95 155.43 87.06C155.91 87.43 155.6 88.19 155.69 88.78C155.79 89.45 156.44 90.01 156.32 90.68C156.23 91.21 155.67 91.62 155.76 92.15C155.85 92.7 156.55 92.86 157.11 92.91C157.43 92.96 157.76 92.93 158.07 92.8C158.37 92.59 158.58 92.28 158.67 91.92C158.9 91.24 158.99 90.53 158.95 89.81C158.95 89.49 158.87 89.17 158.71 88.88C158.55 88.66 158.36 88.44 158.16 88.25C157.09 87 158.21 85.15 156.19 84.58Z" fill="#3F3D56" fill-opacity="1.000000" fill-rule="nonzero"/>
        <g opacity="0.800000">
            <path id="Vector" d="M296.52 181.82C296.52 181.82 214.79 134.91 179.6 143.8C179.6 143.8 105.03 151.82 96.39 169.48C96.39 169.48 72.68 95.4 64.04 92.93" stroke="#6C63FF" stroke-opacity="1.000000" stroke-width="0.598331"/>
        </g>
        <g opacity="0.800000">
            <path id="Vector" d="M96.39 169.48C110.09 132.93 233.55 92.44 233.55 92.44C216.02 96.88 179.6 143.8 179.6 143.8C179.6 143.8 102.56 87.74 64.04 92.93C64.04 92.93 233.68 98.49 296.52 181.82" stroke="#6C63FF" stroke-opacity="1.000000" stroke-width="0.598331"/>
        </g>
        <path id="Vector" d="M67.62 92.93C67.62 94.91 66.02 96.51 64.04 96.51C62.06 96.51 60.46 94.91 60.46 92.93C60.46 90.95 62.06 89.35 64.04 89.35C66.02 89.35 67.62 90.95 67.62 92.93Z" fill="#6C63FF" fill-opacity="1.000000" fill-rule="evenodd"/>
        <path id="Vector" d="M99.97 169.48C99.97 171.45 98.36 173.06 96.39 173.06C94.41 173.06 92.81 171.45 92.81 169.48C92.81 167.5 94.41 165.9 96.39 165.9C98.36 165.9 99.97 167.5 99.97 169.48Z" fill="#6C63FF" fill-opacity="1.000000" fill-rule="evenodd"/>
        <path id="Vector" d="M237.13 92.44C237.13 94.41 235.53 96.02 233.55 96.02C231.58 96.02 229.97 94.41 229.97 92.44C229.97 90.46 231.58 88.86 233.55 88.86C235.53 88.86 237.13 90.46 237.13 92.44Z" fill="#6C63FF" fill-opacity="1.000000" fill-rule="evenodd"/>
        <path id="Vector" d="M300.1 181.82C300.1 183.8 298.5 185.4 296.52 185.4C294.54 185.4 292.94 183.8 292.94 181.82C292.94 179.85 294.54 178.24 296.52 178.24C298.5 178.24 300.1 179.85 300.1 181.82Z" fill="#6C63FF" fill-opacity="1.000000" fill-rule="evenodd"/>
        <path id="Vector" d="M183.18 143.8C183.18 145.77 181.58 147.38 179.6 147.38C177.62 147.38 176.02 145.77 176.02 143.8C176.02 141.82 177.62 140.22 179.6 140.22C181.58 140.22 183.18 141.82 183.18 143.8Z" fill="#6C63FF" fill-opacity="1.000000" fill-rule="evenodd"/>
    </g>
</svg>
